<?xml version="1.0" encoding="UTF-8" standalone="no"?>
<!-- Generator: Adobe Illustrator 19.0.0, SVG Export Plug-In . SVG Version: 6.00 Build 0)  -->

<svg
   version="1.1"
   id="Calque_1"
   x="0px"
   y="0px"
   viewBox="0 0 200 200"
   style="enable-background:new 0 0 200 200;"
   xml:space="preserve"
   sodipodi:docname="microchip-solid"
   inkscape:version="1.2.2 (732a01da63, 2022-12-09, custom)"
   xmlns:inkscape="http://www.inkscape.org/namespaces/inkscape"
   xmlns:sodipodi="http://sodipodi.sourceforge.net/DTD/sodipodi-0.dtd"
   xmlns="http://www.w3.org/2000/svg"
   xmlns:svg="http://www.w3.org/2000/svg"><defs
   id="defs18" /><sodipodi:namedview
   id="namedview16"
   pagecolor="#ffffff"
   bordercolor="#000000"
   borderopacity="0.25"
   inkscape:showpageshadow="2"
   inkscape:pageopacity="0.0"
   inkscape:pagecheckerboard="0"
   inkscape:deskcolor="#d1d1d1"
   showgrid="false"
   inkscape:zoom="3.91"
   inkscape:cx="86.061381"
   inkscape:cy="84.398977"
   inkscape:window-width="1920"
   inkscape:window-height="1011"
   inkscape:window-x="0"
   inkscape:window-y="0"
   inkscape:window-maximized="1"
   inkscape:current-layer="Calque_1" />
<style
   type="text/css"
   id="style2">
	.st0{fill:#4FC1EA;}
	.st1{opacity:0.3;}
	.st2{fill:#585763;}
</style>

<path
   d="m 82.116992,48.968083 c 0,-2.726572 -2.19355,-4.920129 -4.92013,-4.920129 -2.72657,0 -4.92012,2.193557 -4.92012,4.920129 v 8.200215 c -7.2367,0 -13.12035,5.883656 -13.12035,13.120343 h -8.20021 c -2.726575,0 -4.920137,2.193562 -4.920137,4.920129 0,2.726572 2.193562,4.920134 4.920137,4.920134 h 8.20021 v 11.4803 h -8.20021 c -2.726575,0 -4.920137,2.193556 -4.920137,4.92013 0,2.726571 2.193562,4.920126 4.920137,4.920126 h 8.20021 v 11.4803 h -8.20021 c -2.726575,0 -4.920137,2.19356 -4.920137,4.92013 0,2.72657 2.193562,4.92013 4.920137,4.92013 h 8.20021 c 0,7.23669 5.88365,13.12035 13.12035,13.12035 v 8.20021 c 0,2.72657 2.19355,4.92013 4.92012,4.92013 2.72658,0 4.92013,-2.19356 4.92013,-4.92013 v -8.20021 h 11.4803 v 8.20021 c 0,2.72657 2.19356,4.92013 4.92013,4.92013 2.726568,0 4.920128,-2.19356 4.920128,-4.92013 v -8.20021 h 11.4803 v 8.20021 c 0,2.72657 2.19356,4.92013 4.92013,4.92013 2.72657,0 4.92013,-2.19356 4.92013,-4.92013 v -8.20021 c 7.23669,0 13.12035,-5.88366 13.12035,-13.12035 h 8.20021 c 2.72657,0 4.92013,-2.19356 4.92013,-4.92013 0,-2.72657 -2.19356,-4.92013 -4.92013,-4.92013 h -8.20021 v -11.4803 h 8.20021 c 2.72657,0 4.92013,-2.193555 4.92013,-4.920126 0,-2.726574 -2.19356,-4.92013 -4.92013,-4.92013 h -8.20021 v -11.4803 h 8.20021 c 2.72657,0 4.92013,-2.193562 4.92013,-4.920134 0,-2.726567 -2.19356,-4.920129 -4.92013,-4.920129 h -8.20021 c 0,-7.236687 -5.88366,-13.120343 -13.12035,-13.120343 v -8.200215 c 0,-2.726572 -2.19356,-4.920129 -4.92013,-4.920129 -2.72657,0 -4.92013,2.193557 -4.92013,4.920129 v 8.200215 h -11.4803 v -8.200215 c 0,-2.726572 -2.19356,-4.920129 -4.920128,-4.920129 -2.72657,0 -4.92013,2.193557 -4.92013,4.920129 v 8.200215 h -11.4803 z m -3.28008,21.320558 h 39.361028 c 3.62859,0 6.56017,2.931578 6.56017,6.560172 v 39.361037 c 0,3.6286 -2.93158,6.56017 -6.56017,6.56017 H 78.836912 c -3.6286,0 -6.56017,-2.93157 -6.56017,-6.56017 V 76.848813 c 0,-3.628594 2.93157,-6.560172 6.56017,-6.560172 z m 39.361028,6.560172 H 78.836912 v 39.361037 h 39.361028 z"
   id="path237"
   style="stroke-width:0.205005" /></svg>
