<?xml version="1.0" encoding="UTF-8" standalone="no"?>
<!-- Generator: Adobe Illustrator 19.0.0, SVG Export Plug-In . SVG Version: 6.00 Build 0)  -->

<svg
   version="1.1"
   id="Calque_1"
   x="0px"
   y="0px"
   viewBox="0 0 200 200"
   style="enable-background:new 0 0 200 200;"
   xml:space="preserve"
   sodipodi:docname="server-solid"
   inkscape:version="1.2.2 (732a01da63, 2022-12-09, custom)"
   xmlns:inkscape="http://www.inkscape.org/namespaces/inkscape"
   xmlns:sodipodi="http://sodipodi.sourceforge.net/DTD/sodipodi-0.dtd"
   xmlns="http://www.w3.org/2000/svg"
   xmlns:svg="http://www.w3.org/2000/svg"><defs
   id="defs18" /><sodipodi:namedview
   id="namedview16"
   pagecolor="#ffffff"
   bordercolor="#000000"
   borderopacity="0.25"
   inkscape:showpageshadow="2"
   inkscape:pageopacity="0.0"
   inkscape:pagecheckerboard="0"
   inkscape:deskcolor="#d1d1d1"
   showgrid="false"
   inkscape:zoom="3.91"
   inkscape:cx="86.061381"
   inkscape:cy="104.85934"
   inkscape:window-width="1920"
   inkscape:window-height="1011"
   inkscape:window-x="0"
   inkscape:window-y="0"
   inkscape:window-maximized="1"
   inkscape:current-layer="Calque_1" />
<style
   type="text/css"
   id="style2">
	.st0{fill:#4FC1EA;}
	.st1{opacity:0.3;}
	.st2{fill:#585763;}
</style>

<path
   d="m 58.009373,47.826046 c -7.580705,0 -13.74405,6.163341 -13.74405,13.744051 v 13.74405 c 0,7.580696 6.163345,13.744051 13.74405,13.744051 h 82.464287 c 7.58071,0 13.74405,-6.163355 13.74405,-13.744051 v -13.74405 c 0,-7.58071 -6.16334,-13.744051 -13.74405,-13.744051 z m 60.130207,15.462059 a 5.1540188,5.1540188 0 1 1 0,10.308034 5.1540188,5.1540188 0 1 1 0,-10.308034 z m 10.30804,5.15401 a 5.1540188,5.1540188 0 1 1 10.30803,0 5.1540188,5.1540188 0 1 1 -10.30803,0 z M 58.009373,102.80225 c -7.580705,0 -13.74405,6.16334 -13.74405,13.74405 v 13.74405 c 0,7.5807 6.163345,13.74406 13.74405,13.74406 h 82.464287 c 7.58071,0 13.74405,-6.16336 13.74405,-13.74406 V 116.5463 c 0,-7.58071 -6.16334,-13.74405 -13.74405,-13.74405 z m 60.130207,15.46205 a 5.154025,5.154025 0 1 1 0,10.30805 5.154025,5.154025 0 1 1 0,-10.30805 z m 12.02604,5.15402 a 5.15402,5.15402 0 1 1 10.30804,0 5.15402,5.15402 0 1 1 -10.30804,0 z"
   id="path207"
   style="stroke-width:0.21475" /></svg>
